# xmcd
#
# Track frame offsets:
#	150
#	20844
#	34590
#	49080
#	65685
#	84050
#	104529
#	115492
#	127682
#	148410
#	158372
#	181430
#	202485
#	217252
#	233097
#	259732
#
# Disc length: 3801 seconds
#
# Revision: 0
# Processed by: cddbd v1.5.1PL0 Copyright (c) Steve Scherf et al.
# Submitted via: dBpowerAMP V4.0
#
DISCID=ec0ed710
DTITLE=Detroit Blues Band - Playin' It Cool
DYEAR=1998
DGENRE=Blues
TTITLE0=Diddley Daddy
TTITLE1=Spontaneous
TTITLE2=Bums Rush
TTITLE3=La' Fantasia de Miguel
TTITLE4=She's On The Losin Side
TTITLE5=You May
TTITLE6=Don't Wanna Love You A Little
TTITLE7=I'll Write A Song About You
TTITLE8=Have You Ever Known The Blues To Be So Bad
TTITLE9=Wheels
TTITLE10=Your Fine but Your Not My Kind
TTITLE11=Including You
TTITLE12=Don't Let Go
TTITLE13=Unsteady Blues
TTITLE14=Oh My
TTITLE15=Champagne
EXTD=
EXTT0=
EXTT1=
EXTT2=
EXTT3=
EXTT4=
EXTT5=
EXTT6=
EXTT7=
EXTT8=
EXTT9=
EXTT10=
EXTT11=
EXTT12=
EXTT13=
EXTT14=
EXTT15=
PLAYORDER=
